# xmcd CD database file
#
# Track frame offsets:
#	175
#	17387
#	34587
#	54080
#	73602
#	92710
#	111405
#	124780
#	143840
#
# Disc length: 2176 seconds
#
# Revision: 2
# Processed by: cddbd v1.4b41PL1 Copyright (c) Steve Scherf et al.
# Submitted via: Feurio! 1.60 - http://www.feurio.com
#
DISCID=6f087e09,81087e09
DTITLE=Dark City - Dark City
DYEAR=1900
DGENRE=
TTITLE0=Rescue Me
TTITLE1=Forever
TTITLE2=Solid Gone
TTITLE3=Insecure
TTITLE4=Come On Over
TTITLE5=Indecision
TTITLE6=Untouchable
TTITLE7=Rules Of The Game
TTITLE8=Almost There
EXTD=
EXTT0=
EXTT1=
EXTT2=
EXTT3=
EXTT4=
EXTT5=
EXTT6=
EXTT7=
EXTT8=
PLAYORDER=
